<?xml version="1.0" encoding="UTF-8"?>
<svg xmlns="http://www.w3.org/2000/svg" width="512" height="512" viewBox="0 0 512 512"><path d="M496,232H478.71a223.755,223.755,0,0,0-58.77-128.63L439.31,84H468a8,8,0,0,0,0-16H455.31l12-12H496a8,8,0,0,0,0-16H483.31l2.35-2.34a8,8,0,0,0-11.32-11.32L472,28.69V16a8,8,0,0,0-16,0V44.69l-12,12V44a8,8,0,0,0-16,0V72.69L408.63,92.06A223.755,223.755,0,0,0,280,33.29V16a8,8,0,0,0-8-8H240a8,8,0,0,0-8,8V33.29A224.007,224.007,0,0,0,33.29,232H16a8,8,0,0,0-8,8v32a8,8,0,0,0,8,8H33.29A224.007,224.007,0,0,0,232,478.71V496a8,8,0,0,0,8,8h32a8,8,0,0,0,8-8V478.71A224.007,224.007,0,0,0,478.71,280H496a8,8,0,0,0,8-8V240A8,8,0,0,0,496,232ZM248,24h16V56H248ZM24,264V248H56v16ZM264,488H248V456h16Zm139.08-84.92A207.819,207.819,0,0,1,280,462.62V448a8,8,0,0,0-8-8H240a8,8,0,0,0-8,8v14.62A208.033,208.033,0,0,1,49.38,280H64a8,8,0,0,0,8-8V240a8,8,0,0,0-8-8H49.38A208.033,208.033,0,0,1,232,49.38V64a8,8,0,0,0,8,8h32a8,8,0,0,0,8-8V49.38a207.79,207.79,0,0,1,117.31,54l-28.36,28.36A167.365,167.365,0,0,0,256,88C163.36,88,88,163.36,88,256s75.36,168,168,168,168-75.36,168-168a167.365,167.365,0,0,0-43.74-112.95l28.36-28.36a207.79,207.79,0,0,1,54,117.31H448a8,8,0,0,0-8,8v32a8,8,0,0,0,8,8h14.62A207.819,207.819,0,0,1,403.08,403.08ZM240,232a8,8,0,0,0-8,8v32a8,8,0,0,0,8,8h32a8,8,0,0,0,0-16H259.31l35.79-35.79a48.077,48.077,0,1,1-11.31-11.31L248,252.69V240A8,8,0,0,0,240,232Zm55.21-26.53a64.1,64.1,0,1,0,11.32,11.32l62.4-62.41A151.415,151.415,0,0,1,408,256c0,83.81-68.19,152-152,152S104,339.81,104,256s68.19-152,152-152a151.415,151.415,0,0,1,101.62,39.07ZM488,264H456V248h32Z"/></svg>
